<mxfile host="Electron" modified="2024-03-16T14:49:06.567Z" agent="Mozilla/5.0 (Windows NT 10.0; Win64; x64) AppleWebKit/537.36 (KHTML, like Gecko) draw.io/22.1.18 Chrome/120.0.6099.199 Electron/28.1.2 Safari/537.36" etag="mQlEJD70q53ZcsegZNOD" version="22.1.18" type="device">
  <diagram name="Page-1" id="7TTD3cpKinKYoJwU7Lcs">
    <mxGraphModel dx="1199" dy="2198" grid="1" gridSize="10" guides="1" tooltips="1" connect="1" arrows="1" fold="1" page="1" pageScale="1" pageWidth="850" pageHeight="1100" math="0" shadow="0">
      <root>
        <mxCell id="0" />
        <mxCell id="1" parent="0" />
        <mxCell id="F35jx74PrOIdeF3ReqpK-1" value="&lt;h1&gt;Breadth First Search for Single Source Shortest Path&lt;/h1&gt;&lt;p&gt;While the queue isn&#39;t empty:&amp;nbsp;&lt;/p&gt;&lt;blockquote style=&quot;margin: 0 0 0 40px; border: none; padding: 0px;&quot;&gt;&lt;p&gt;deque an element,&amp;nbsp;&lt;/p&gt;&lt;p&gt;&lt;span style=&quot;white-space: pre;&quot;&gt;&#x9;&lt;/span&gt;if it is unvisited:&lt;/p&gt;&lt;p&gt;&lt;span style=&quot;white-space: pre;&quot;&gt;&#x9;&lt;/span&gt;&lt;span style=&quot;white-space: pre;&quot;&gt;&#x9;&lt;/span&gt;mark it as visited&amp;nbsp;&lt;/p&gt;&lt;p&gt;&lt;span style=&quot;white-space: pre;&quot;&gt;&#x9;&lt;/span&gt;&lt;span style=&quot;white-space: pre;&quot;&gt;&#x9;&lt;/span&gt;enque its neighbors&lt;/p&gt;&lt;p&gt;&lt;span style=&quot;white-space: pre;&quot;&gt;&#x9;&lt;/span&gt;&lt;span style=&quot;white-space: pre;&quot;&gt;&#x9;&lt;/span&gt;update node property&lt;/p&gt;&lt;/blockquote&gt;" style="text;html=1;strokeColor=none;fillColor=none;spacing=5;spacingTop=-20;whiteSpace=wrap;overflow=hidden;rounded=0;" parent="1" vertex="1">
          <mxGeometry x="450" y="-120" width="410" height="250" as="geometry" />
        </mxCell>
        <mxCell id="PL-AgUQmlZ-1JZNhK2am-4" style="rounded=0;orthogonalLoop=1;jettySize=auto;html=1;exitX=0.5;exitY=1;exitDx=0;exitDy=0;entryX=0.5;entryY=0;entryDx=0;entryDy=0;endArrow=none;endFill=0;" parent="1" source="F35jx74PrOIdeF3ReqpK-2" target="F35jx74PrOIdeF3ReqpK-11" edge="1">
          <mxGeometry relative="1" as="geometry" />
        </mxCell>
        <mxCell id="PL-AgUQmlZ-1JZNhK2am-6" style="rounded=0;orthogonalLoop=1;jettySize=auto;html=1;exitX=1;exitY=0.5;exitDx=0;exitDy=0;entryX=0.5;entryY=0;entryDx=0;entryDy=0;endArrow=none;endFill=0;" parent="1" source="F35jx74PrOIdeF3ReqpK-2" target="F35jx74PrOIdeF3ReqpK-8" edge="1">
          <mxGeometry relative="1" as="geometry" />
        </mxCell>
        <mxCell id="F35jx74PrOIdeF3ReqpK-2" value="&lt;font style=&quot;font-size: 18px;&quot;&gt;&lt;b&gt;B&lt;/b&gt;&lt;/font&gt;" style="ellipse;whiteSpace=wrap;html=1;aspect=fixed;" parent="1" vertex="1">
          <mxGeometry x="640" y="200" width="40" height="40" as="geometry" />
        </mxCell>
        <mxCell id="PL-AgUQmlZ-1JZNhK2am-3" style="rounded=0;orthogonalLoop=1;jettySize=auto;html=1;exitX=1;exitY=0.5;exitDx=0;exitDy=0;entryX=0;entryY=0.5;entryDx=0;entryDy=0;endArrow=none;endFill=0;" parent="1" source="F35jx74PrOIdeF3ReqpK-5" target="F35jx74PrOIdeF3ReqpK-11" edge="1">
          <mxGeometry relative="1" as="geometry" />
        </mxCell>
        <mxCell id="PL-AgUQmlZ-1JZNhK2am-7" style="rounded=0;orthogonalLoop=1;jettySize=auto;html=1;exitX=0.5;exitY=1;exitDx=0;exitDy=0;entryX=0.5;entryY=0;entryDx=0;entryDy=0;endArrow=none;endFill=0;" parent="1" source="F35jx74PrOIdeF3ReqpK-5" target="F35jx74PrOIdeF3ReqpK-10" edge="1">
          <mxGeometry relative="1" as="geometry" />
        </mxCell>
        <mxCell id="F35jx74PrOIdeF3ReqpK-5" value="&lt;font style=&quot;font-size: 18px;&quot;&gt;&lt;b&gt;C&lt;/b&gt;&lt;/font&gt;" style="ellipse;whiteSpace=wrap;html=1;aspect=fixed;" parent="1" vertex="1">
          <mxGeometry x="440" y="360" width="40" height="40" as="geometry" />
        </mxCell>
        <mxCell id="F35jx74PrOIdeF3ReqpK-8" value="&lt;font style=&quot;font-size: 18px;&quot;&gt;&lt;b&gt;G&lt;/b&gt;&lt;/font&gt;" style="ellipse;whiteSpace=wrap;html=1;aspect=fixed;" parent="1" vertex="1">
          <mxGeometry x="840" y="360" width="40" height="40" as="geometry" />
        </mxCell>
        <mxCell id="PL-AgUQmlZ-1JZNhK2am-1" style="rounded=0;orthogonalLoop=1;jettySize=auto;html=1;exitX=1;exitY=0.5;exitDx=0;exitDy=0;entryX=0;entryY=0.5;entryDx=0;entryDy=0;endArrow=none;endFill=0;" parent="1" source="F35jx74PrOIdeF3ReqpK-9" target="F35jx74PrOIdeF3ReqpK-2" edge="1">
          <mxGeometry relative="1" as="geometry" />
        </mxCell>
        <mxCell id="PL-AgUQmlZ-1JZNhK2am-2" style="rounded=0;orthogonalLoop=1;jettySize=auto;html=1;exitX=0.5;exitY=1;exitDx=0;exitDy=0;entryX=0.5;entryY=0;entryDx=0;entryDy=0;endArrow=none;endFill=0;" parent="1" source="F35jx74PrOIdeF3ReqpK-9" target="F35jx74PrOIdeF3ReqpK-5" edge="1">
          <mxGeometry relative="1" as="geometry" />
        </mxCell>
        <mxCell id="F35jx74PrOIdeF3ReqpK-9" value="&lt;font style=&quot;font-size: 18px;&quot;&gt;&lt;b&gt;A&lt;/b&gt;&lt;/font&gt;" style="ellipse;whiteSpace=wrap;html=1;aspect=fixed;" parent="1" vertex="1">
          <mxGeometry x="440" y="200" width="40" height="40" as="geometry" />
        </mxCell>
        <mxCell id="PL-AgUQmlZ-1JZNhK2am-9" style="rounded=0;orthogonalLoop=1;jettySize=auto;html=1;exitX=1;exitY=0.5;exitDx=0;exitDy=0;entryX=0;entryY=0.5;entryDx=0;entryDy=0;endArrow=none;endFill=0;" parent="1" source="F35jx74PrOIdeF3ReqpK-10" target="F35jx74PrOIdeF3ReqpK-12" edge="1">
          <mxGeometry relative="1" as="geometry" />
        </mxCell>
        <mxCell id="F35jx74PrOIdeF3ReqpK-10" value="&lt;font style=&quot;font-size: 18px;&quot;&gt;&lt;b&gt;E&lt;/b&gt;&lt;/font&gt;" style="ellipse;whiteSpace=wrap;html=1;aspect=fixed;" parent="1" vertex="1">
          <mxGeometry x="440" y="520" width="40" height="40" as="geometry" />
        </mxCell>
        <mxCell id="PL-AgUQmlZ-1JZNhK2am-8" style="rounded=0;orthogonalLoop=1;jettySize=auto;html=1;exitX=0.5;exitY=1;exitDx=0;exitDy=0;entryX=0.5;entryY=0;entryDx=0;entryDy=0;endArrow=none;endFill=0;" parent="1" source="F35jx74PrOIdeF3ReqpK-11" target="F35jx74PrOIdeF3ReqpK-12" edge="1">
          <mxGeometry relative="1" as="geometry" />
        </mxCell>
        <mxCell id="F35jx74PrOIdeF3ReqpK-11" value="&lt;font style=&quot;font-size: 18px;&quot;&gt;&lt;b&gt;D&lt;/b&gt;&lt;/font&gt;" style="ellipse;whiteSpace=wrap;html=1;aspect=fixed;" parent="1" vertex="1">
          <mxGeometry x="640" y="360" width="40" height="40" as="geometry" />
        </mxCell>
        <mxCell id="PL-AgUQmlZ-1JZNhK2am-10" style="rounded=0;orthogonalLoop=1;jettySize=auto;html=1;exitX=1;exitY=0.5;exitDx=0;exitDy=0;entryX=0.5;entryY=1;entryDx=0;entryDy=0;endArrow=none;endFill=0;" parent="1" source="F35jx74PrOIdeF3ReqpK-12" target="F35jx74PrOIdeF3ReqpK-8" edge="1">
          <mxGeometry relative="1" as="geometry" />
        </mxCell>
        <mxCell id="F35jx74PrOIdeF3ReqpK-12" value="&lt;font style=&quot;font-size: 18px;&quot;&gt;&lt;b&gt;F&lt;/b&gt;&lt;/font&gt;" style="ellipse;whiteSpace=wrap;html=1;aspect=fixed;" parent="1" vertex="1">
          <mxGeometry x="640" y="520" width="40" height="40" as="geometry" />
        </mxCell>
        <mxCell id="F35jx74PrOIdeF3ReqpK-104" value="&lt;b&gt;&lt;font style=&quot;font-size: 18px;&quot;&gt;Queue Cycles&lt;/font&gt;&lt;/b&gt;" style="text;html=1;strokeColor=none;fillColor=none;align=center;verticalAlign=middle;whiteSpace=wrap;rounded=0;" parent="1" vertex="1">
          <mxGeometry x="360" y="620" width="140" height="30" as="geometry" />
        </mxCell>
        <mxCell id="F35jx74PrOIdeF3ReqpK-105" value="1" style="text;html=1;strokeColor=none;fillColor=none;align=center;verticalAlign=middle;whiteSpace=wrap;rounded=0;" parent="1" vertex="1">
          <mxGeometry y="325" width="40" height="30" as="geometry" />
        </mxCell>
        <mxCell id="PL-AgUQmlZ-1JZNhK2am-13" value="A" style="whiteSpace=wrap;html=1;aspect=fixed;fontStyle=1" parent="1" vertex="1">
          <mxGeometry x="360" y="680" width="40" height="40" as="geometry" />
        </mxCell>
        <mxCell id="PL-AgUQmlZ-1JZNhK2am-14" value="" style="whiteSpace=wrap;html=1;aspect=fixed;fontStyle=1" parent="1" vertex="1">
          <mxGeometry x="440" y="680" width="40" height="40" as="geometry" />
        </mxCell>
        <mxCell id="PL-AgUQmlZ-1JZNhK2am-15" value="" style="whiteSpace=wrap;html=1;aspect=fixed;fontStyle=1" parent="1" vertex="1">
          <mxGeometry x="400" y="680" width="40" height="40" as="geometry" />
        </mxCell>
        <mxCell id="PL-AgUQmlZ-1JZNhK2am-16" value="" style="whiteSpace=wrap;html=1;aspect=fixed;fontStyle=1" parent="1" vertex="1">
          <mxGeometry x="480" y="680" width="40" height="40" as="geometry" />
        </mxCell>
        <mxCell id="PL-AgUQmlZ-1JZNhK2am-18" value="" style="whiteSpace=wrap;html=1;aspect=fixed;fontStyle=1" parent="1" vertex="1">
          <mxGeometry x="520" y="680" width="40" height="40" as="geometry" />
        </mxCell>
        <mxCell id="PL-AgUQmlZ-1JZNhK2am-19" value="" style="whiteSpace=wrap;html=1;aspect=fixed;fontStyle=1" parent="1" vertex="1">
          <mxGeometry x="560" y="680" width="40" height="40" as="geometry" />
        </mxCell>
        <mxCell id="PL-AgUQmlZ-1JZNhK2am-20" value="" style="whiteSpace=wrap;html=1;aspect=fixed;fontStyle=1" parent="1" vertex="1">
          <mxGeometry x="600" y="680" width="40" height="40" as="geometry" />
        </mxCell>
        <mxCell id="PL-AgUQmlZ-1JZNhK2am-21" value="" style="whiteSpace=wrap;html=1;aspect=fixed;fontStyle=1" parent="1" vertex="1">
          <mxGeometry x="640" y="680" width="40" height="40" as="geometry" />
        </mxCell>
        <mxCell id="PL-AgUQmlZ-1JZNhK2am-22" value="&lt;span style=&quot;font-size: 18px;&quot;&gt;&lt;b&gt;Visited Cycles&lt;/b&gt;&lt;/span&gt;" style="text;html=1;strokeColor=none;fillColor=none;align=center;verticalAlign=middle;whiteSpace=wrap;rounded=0;" parent="1" vertex="1">
          <mxGeometry x="840" y="620" width="140" height="30" as="geometry" />
        </mxCell>
        <mxCell id="PL-AgUQmlZ-1JZNhK2am-23" value="" style="whiteSpace=wrap;html=1;aspect=fixed;fontStyle=1" parent="1" vertex="1">
          <mxGeometry x="840" y="680" width="40" height="40" as="geometry" />
        </mxCell>
        <mxCell id="PL-AgUQmlZ-1JZNhK2am-24" value="" style="whiteSpace=wrap;html=1;aspect=fixed;fontStyle=1" parent="1" vertex="1">
          <mxGeometry x="920" y="680" width="40" height="40" as="geometry" />
        </mxCell>
        <mxCell id="PL-AgUQmlZ-1JZNhK2am-25" value="" style="whiteSpace=wrap;html=1;aspect=fixed;fontStyle=1" parent="1" vertex="1">
          <mxGeometry x="880" y="680" width="40" height="40" as="geometry" />
        </mxCell>
        <mxCell id="PL-AgUQmlZ-1JZNhK2am-26" value="" style="whiteSpace=wrap;html=1;aspect=fixed;fontStyle=1" parent="1" vertex="1">
          <mxGeometry x="960" y="680" width="40" height="40" as="geometry" />
        </mxCell>
        <mxCell id="PL-AgUQmlZ-1JZNhK2am-27" value="" style="whiteSpace=wrap;html=1;aspect=fixed;fontStyle=1" parent="1" vertex="1">
          <mxGeometry x="1000" y="680" width="40" height="40" as="geometry" />
        </mxCell>
        <mxCell id="PL-AgUQmlZ-1JZNhK2am-28" value="" style="whiteSpace=wrap;html=1;aspect=fixed;fontStyle=1" parent="1" vertex="1">
          <mxGeometry x="1040" y="680" width="40" height="40" as="geometry" />
        </mxCell>
        <mxCell id="PL-AgUQmlZ-1JZNhK2am-29" value="" style="whiteSpace=wrap;html=1;aspect=fixed;fontStyle=1" parent="1" vertex="1">
          <mxGeometry x="1080" y="680" width="40" height="40" as="geometry" />
        </mxCell>
        <mxCell id="PL-AgUQmlZ-1JZNhK2am-30" value="" style="whiteSpace=wrap;html=1;aspect=fixed;fontStyle=1" parent="1" vertex="1">
          <mxGeometry x="1120" y="680" width="40" height="40" as="geometry" />
        </mxCell>
        <mxCell id="PL-AgUQmlZ-1JZNhK2am-31" value="&lt;font color=&quot;#999999&quot;&gt;A&lt;/font&gt;" style="whiteSpace=wrap;html=1;aspect=fixed;fontStyle=1" parent="1" vertex="1">
          <mxGeometry x="360" y="800" width="40" height="40" as="geometry" />
        </mxCell>
        <mxCell id="PL-AgUQmlZ-1JZNhK2am-32" value="C" style="whiteSpace=wrap;html=1;aspect=fixed;fontStyle=1" parent="1" vertex="1">
          <mxGeometry x="440" y="800" width="40" height="40" as="geometry" />
        </mxCell>
        <mxCell id="PL-AgUQmlZ-1JZNhK2am-33" value="B" style="whiteSpace=wrap;html=1;aspect=fixed;fontStyle=1" parent="1" vertex="1">
          <mxGeometry x="400" y="800" width="40" height="40" as="geometry" />
        </mxCell>
        <mxCell id="PL-AgUQmlZ-1JZNhK2am-34" value="" style="whiteSpace=wrap;html=1;aspect=fixed;fontStyle=1" parent="1" vertex="1">
          <mxGeometry x="480" y="800" width="40" height="40" as="geometry" />
        </mxCell>
        <mxCell id="PL-AgUQmlZ-1JZNhK2am-35" value="" style="whiteSpace=wrap;html=1;aspect=fixed;fontStyle=1" parent="1" vertex="1">
          <mxGeometry x="520" y="800" width="40" height="40" as="geometry" />
        </mxCell>
        <mxCell id="PL-AgUQmlZ-1JZNhK2am-36" value="" style="whiteSpace=wrap;html=1;aspect=fixed;fontStyle=1" parent="1" vertex="1">
          <mxGeometry x="560" y="800" width="40" height="40" as="geometry" />
        </mxCell>
        <mxCell id="PL-AgUQmlZ-1JZNhK2am-37" value="" style="whiteSpace=wrap;html=1;aspect=fixed;fontStyle=1" parent="1" vertex="1">
          <mxGeometry x="600" y="800" width="40" height="40" as="geometry" />
        </mxCell>
        <mxCell id="PL-AgUQmlZ-1JZNhK2am-38" value="" style="whiteSpace=wrap;html=1;aspect=fixed;fontStyle=1" parent="1" vertex="1">
          <mxGeometry x="640" y="800" width="40" height="40" as="geometry" />
        </mxCell>
        <mxCell id="PL-AgUQmlZ-1JZNhK2am-39" value="A" style="whiteSpace=wrap;html=1;aspect=fixed;fontStyle=1" parent="1" vertex="1">
          <mxGeometry x="840" y="800" width="40" height="40" as="geometry" />
        </mxCell>
        <mxCell id="PL-AgUQmlZ-1JZNhK2am-40" value="" style="whiteSpace=wrap;html=1;aspect=fixed;fontStyle=1" parent="1" vertex="1">
          <mxGeometry x="920" y="800" width="40" height="40" as="geometry" />
        </mxCell>
        <mxCell id="PL-AgUQmlZ-1JZNhK2am-41" value="" style="whiteSpace=wrap;html=1;aspect=fixed;fontStyle=1" parent="1" vertex="1">
          <mxGeometry x="880" y="800" width="40" height="40" as="geometry" />
        </mxCell>
        <mxCell id="PL-AgUQmlZ-1JZNhK2am-42" value="" style="whiteSpace=wrap;html=1;aspect=fixed;fontStyle=1" parent="1" vertex="1">
          <mxGeometry x="960" y="800" width="40" height="40" as="geometry" />
        </mxCell>
        <mxCell id="PL-AgUQmlZ-1JZNhK2am-43" value="" style="whiteSpace=wrap;html=1;aspect=fixed;fontStyle=1" parent="1" vertex="1">
          <mxGeometry x="1000" y="800" width="40" height="40" as="geometry" />
        </mxCell>
        <mxCell id="PL-AgUQmlZ-1JZNhK2am-44" value="" style="whiteSpace=wrap;html=1;aspect=fixed;fontStyle=1" parent="1" vertex="1">
          <mxGeometry x="1040" y="800" width="40" height="40" as="geometry" />
        </mxCell>
        <mxCell id="PL-AgUQmlZ-1JZNhK2am-45" value="" style="whiteSpace=wrap;html=1;aspect=fixed;fontStyle=1" parent="1" vertex="1">
          <mxGeometry x="1080" y="800" width="40" height="40" as="geometry" />
        </mxCell>
        <mxCell id="PL-AgUQmlZ-1JZNhK2am-46" value="" style="whiteSpace=wrap;html=1;aspect=fixed;fontStyle=1" parent="1" vertex="1">
          <mxGeometry x="1120" y="800" width="40" height="40" as="geometry" />
        </mxCell>
        <mxCell id="PL-AgUQmlZ-1JZNhK2am-47" value="&lt;font color=&quot;#999999&quot;&gt;A&lt;/font&gt;" style="whiteSpace=wrap;html=1;aspect=fixed;fontStyle=1" parent="1" vertex="1">
          <mxGeometry x="360" y="920" width="40" height="40" as="geometry" />
        </mxCell>
        <mxCell id="PL-AgUQmlZ-1JZNhK2am-48" value="C" style="whiteSpace=wrap;html=1;aspect=fixed;fontStyle=1" parent="1" vertex="1">
          <mxGeometry x="440" y="920" width="40" height="40" as="geometry" />
        </mxCell>
        <mxCell id="PL-AgUQmlZ-1JZNhK2am-49" value="&lt;font color=&quot;#999999&quot;&gt;B&lt;/font&gt;" style="whiteSpace=wrap;html=1;aspect=fixed;fontStyle=1" parent="1" vertex="1">
          <mxGeometry x="400" y="920" width="40" height="40" as="geometry" />
        </mxCell>
        <mxCell id="PL-AgUQmlZ-1JZNhK2am-50" value="D" style="whiteSpace=wrap;html=1;aspect=fixed;fontStyle=1" parent="1" vertex="1">
          <mxGeometry x="480" y="920" width="40" height="40" as="geometry" />
        </mxCell>
        <mxCell id="PL-AgUQmlZ-1JZNhK2am-51" value="G" style="whiteSpace=wrap;html=1;aspect=fixed;fontStyle=1" parent="1" vertex="1">
          <mxGeometry x="520" y="920" width="40" height="40" as="geometry" />
        </mxCell>
        <mxCell id="PL-AgUQmlZ-1JZNhK2am-52" value="" style="whiteSpace=wrap;html=1;aspect=fixed;fontStyle=1" parent="1" vertex="1">
          <mxGeometry x="560" y="920" width="40" height="40" as="geometry" />
        </mxCell>
        <mxCell id="PL-AgUQmlZ-1JZNhK2am-53" value="" style="whiteSpace=wrap;html=1;aspect=fixed;fontStyle=1" parent="1" vertex="1">
          <mxGeometry x="600" y="920" width="40" height="40" as="geometry" />
        </mxCell>
        <mxCell id="PL-AgUQmlZ-1JZNhK2am-54" value="" style="whiteSpace=wrap;html=1;aspect=fixed;fontStyle=1" parent="1" vertex="1">
          <mxGeometry x="640" y="920" width="40" height="40" as="geometry" />
        </mxCell>
        <mxCell id="PL-AgUQmlZ-1JZNhK2am-55" value="A" style="whiteSpace=wrap;html=1;aspect=fixed;fontStyle=1" parent="1" vertex="1">
          <mxGeometry x="840" y="920" width="40" height="40" as="geometry" />
        </mxCell>
        <mxCell id="PL-AgUQmlZ-1JZNhK2am-56" value="" style="whiteSpace=wrap;html=1;aspect=fixed;fontStyle=1" parent="1" vertex="1">
          <mxGeometry x="920" y="920" width="40" height="40" as="geometry" />
        </mxCell>
        <mxCell id="PL-AgUQmlZ-1JZNhK2am-57" value="B" style="whiteSpace=wrap;html=1;aspect=fixed;fontStyle=1" parent="1" vertex="1">
          <mxGeometry x="880" y="920" width="40" height="40" as="geometry" />
        </mxCell>
        <mxCell id="PL-AgUQmlZ-1JZNhK2am-58" value="" style="whiteSpace=wrap;html=1;aspect=fixed;fontStyle=1" parent="1" vertex="1">
          <mxGeometry x="960" y="920" width="40" height="40" as="geometry" />
        </mxCell>
        <mxCell id="PL-AgUQmlZ-1JZNhK2am-59" value="" style="whiteSpace=wrap;html=1;aspect=fixed;fontStyle=1" parent="1" vertex="1">
          <mxGeometry x="1000" y="920" width="40" height="40" as="geometry" />
        </mxCell>
        <mxCell id="PL-AgUQmlZ-1JZNhK2am-60" value="" style="whiteSpace=wrap;html=1;aspect=fixed;fontStyle=1" parent="1" vertex="1">
          <mxGeometry x="1040" y="920" width="40" height="40" as="geometry" />
        </mxCell>
        <mxCell id="PL-AgUQmlZ-1JZNhK2am-61" value="" style="whiteSpace=wrap;html=1;aspect=fixed;fontStyle=1" parent="1" vertex="1">
          <mxGeometry x="1080" y="920" width="40" height="40" as="geometry" />
        </mxCell>
        <mxCell id="PL-AgUQmlZ-1JZNhK2am-62" value="" style="whiteSpace=wrap;html=1;aspect=fixed;fontStyle=1" parent="1" vertex="1">
          <mxGeometry x="1120" y="920" width="40" height="40" as="geometry" />
        </mxCell>
        <mxCell id="PL-AgUQmlZ-1JZNhK2am-63" value="&lt;font color=&quot;#999999&quot;&gt;A&lt;/font&gt;" style="whiteSpace=wrap;html=1;aspect=fixed;fontStyle=1" parent="1" vertex="1">
          <mxGeometry x="360" y="1040" width="40" height="40" as="geometry" />
        </mxCell>
        <mxCell id="PL-AgUQmlZ-1JZNhK2am-64" value="&lt;font color=&quot;#999999&quot;&gt;C&lt;/font&gt;" style="whiteSpace=wrap;html=1;aspect=fixed;fontStyle=1" parent="1" vertex="1">
          <mxGeometry x="440" y="1040" width="40" height="40" as="geometry" />
        </mxCell>
        <mxCell id="PL-AgUQmlZ-1JZNhK2am-65" value="&lt;font color=&quot;#999999&quot;&gt;B&lt;/font&gt;" style="whiteSpace=wrap;html=1;aspect=fixed;fontStyle=1" parent="1" vertex="1">
          <mxGeometry x="400" y="1040" width="40" height="40" as="geometry" />
        </mxCell>
        <mxCell id="PL-AgUQmlZ-1JZNhK2am-66" value="D" style="whiteSpace=wrap;html=1;aspect=fixed;fontStyle=1" parent="1" vertex="1">
          <mxGeometry x="480" y="1040" width="40" height="40" as="geometry" />
        </mxCell>
        <mxCell id="PL-AgUQmlZ-1JZNhK2am-67" value="G" style="whiteSpace=wrap;html=1;aspect=fixed;fontStyle=1" parent="1" vertex="1">
          <mxGeometry x="520" y="1040" width="40" height="40" as="geometry" />
        </mxCell>
        <mxCell id="PL-AgUQmlZ-1JZNhK2am-68" value="E" style="whiteSpace=wrap;html=1;aspect=fixed;fontStyle=1" parent="1" vertex="1">
          <mxGeometry x="560" y="1040" width="40" height="40" as="geometry" />
        </mxCell>
        <mxCell id="PL-AgUQmlZ-1JZNhK2am-69" value="" style="whiteSpace=wrap;html=1;aspect=fixed;fontStyle=1" parent="1" vertex="1">
          <mxGeometry x="600" y="1040" width="40" height="40" as="geometry" />
        </mxCell>
        <mxCell id="PL-AgUQmlZ-1JZNhK2am-70" value="" style="whiteSpace=wrap;html=1;aspect=fixed;fontStyle=1" parent="1" vertex="1">
          <mxGeometry x="640" y="1040" width="40" height="40" as="geometry" />
        </mxCell>
        <mxCell id="PL-AgUQmlZ-1JZNhK2am-71" value="A" style="whiteSpace=wrap;html=1;aspect=fixed;fontStyle=1" parent="1" vertex="1">
          <mxGeometry x="840" y="1040" width="40" height="40" as="geometry" />
        </mxCell>
        <mxCell id="PL-AgUQmlZ-1JZNhK2am-72" value="C" style="whiteSpace=wrap;html=1;aspect=fixed;fontStyle=1" parent="1" vertex="1">
          <mxGeometry x="920" y="1040" width="40" height="40" as="geometry" />
        </mxCell>
        <mxCell id="PL-AgUQmlZ-1JZNhK2am-73" value="B" style="whiteSpace=wrap;html=1;aspect=fixed;fontStyle=1" parent="1" vertex="1">
          <mxGeometry x="880" y="1040" width="40" height="40" as="geometry" />
        </mxCell>
        <mxCell id="PL-AgUQmlZ-1JZNhK2am-74" value="" style="whiteSpace=wrap;html=1;aspect=fixed;fontStyle=1" parent="1" vertex="1">
          <mxGeometry x="960" y="1040" width="40" height="40" as="geometry" />
        </mxCell>
        <mxCell id="PL-AgUQmlZ-1JZNhK2am-75" value="" style="whiteSpace=wrap;html=1;aspect=fixed;fontStyle=1" parent="1" vertex="1">
          <mxGeometry x="1000" y="1040" width="40" height="40" as="geometry" />
        </mxCell>
        <mxCell id="PL-AgUQmlZ-1JZNhK2am-76" value="" style="whiteSpace=wrap;html=1;aspect=fixed;fontStyle=1" parent="1" vertex="1">
          <mxGeometry x="1040" y="1040" width="40" height="40" as="geometry" />
        </mxCell>
        <mxCell id="PL-AgUQmlZ-1JZNhK2am-77" value="" style="whiteSpace=wrap;html=1;aspect=fixed;fontStyle=1" parent="1" vertex="1">
          <mxGeometry x="1080" y="1040" width="40" height="40" as="geometry" />
        </mxCell>
        <mxCell id="PL-AgUQmlZ-1JZNhK2am-78" value="" style="whiteSpace=wrap;html=1;aspect=fixed;fontStyle=1" parent="1" vertex="1">
          <mxGeometry x="1120" y="1040" width="40" height="40" as="geometry" />
        </mxCell>
        <mxCell id="PL-AgUQmlZ-1JZNhK2am-79" value="&lt;font color=&quot;#999999&quot;&gt;A&lt;/font&gt;" style="whiteSpace=wrap;html=1;aspect=fixed;fontStyle=1" parent="1" vertex="1">
          <mxGeometry x="360" y="1160" width="40" height="40" as="geometry" />
        </mxCell>
        <mxCell id="PL-AgUQmlZ-1JZNhK2am-80" value="&lt;font color=&quot;#999999&quot;&gt;C&lt;/font&gt;" style="whiteSpace=wrap;html=1;aspect=fixed;fontStyle=1" parent="1" vertex="1">
          <mxGeometry x="440" y="1160" width="40" height="40" as="geometry" />
        </mxCell>
        <mxCell id="PL-AgUQmlZ-1JZNhK2am-81" value="&lt;font color=&quot;#999999&quot;&gt;B&lt;/font&gt;" style="whiteSpace=wrap;html=1;aspect=fixed;fontStyle=1" parent="1" vertex="1">
          <mxGeometry x="400" y="1160" width="40" height="40" as="geometry" />
        </mxCell>
        <mxCell id="PL-AgUQmlZ-1JZNhK2am-82" value="&lt;font color=&quot;#999999&quot;&gt;D&lt;/font&gt;" style="whiteSpace=wrap;html=1;aspect=fixed;fontStyle=1" parent="1" vertex="1">
          <mxGeometry x="480" y="1160" width="40" height="40" as="geometry" />
        </mxCell>
        <mxCell id="PL-AgUQmlZ-1JZNhK2am-83" value="G" style="whiteSpace=wrap;html=1;aspect=fixed;fontStyle=1" parent="1" vertex="1">
          <mxGeometry x="520" y="1160" width="40" height="40" as="geometry" />
        </mxCell>
        <mxCell id="PL-AgUQmlZ-1JZNhK2am-84" value="E" style="whiteSpace=wrap;html=1;aspect=fixed;fontStyle=1" parent="1" vertex="1">
          <mxGeometry x="560" y="1160" width="40" height="40" as="geometry" />
        </mxCell>
        <mxCell id="PL-AgUQmlZ-1JZNhK2am-85" value="F" style="whiteSpace=wrap;html=1;aspect=fixed;fontStyle=1" parent="1" vertex="1">
          <mxGeometry x="600" y="1160" width="40" height="40" as="geometry" />
        </mxCell>
        <mxCell id="PL-AgUQmlZ-1JZNhK2am-86" value="" style="whiteSpace=wrap;html=1;aspect=fixed;fontStyle=1" parent="1" vertex="1">
          <mxGeometry x="640" y="1160" width="40" height="40" as="geometry" />
        </mxCell>
        <mxCell id="PL-AgUQmlZ-1JZNhK2am-87" value="A" style="whiteSpace=wrap;html=1;aspect=fixed;fontStyle=1" parent="1" vertex="1">
          <mxGeometry x="840" y="1160" width="40" height="40" as="geometry" />
        </mxCell>
        <mxCell id="PL-AgUQmlZ-1JZNhK2am-88" value="C" style="whiteSpace=wrap;html=1;aspect=fixed;fontStyle=1" parent="1" vertex="1">
          <mxGeometry x="920" y="1160" width="40" height="40" as="geometry" />
        </mxCell>
        <mxCell id="PL-AgUQmlZ-1JZNhK2am-89" value="B" style="whiteSpace=wrap;html=1;aspect=fixed;fontStyle=1" parent="1" vertex="1">
          <mxGeometry x="880" y="1160" width="40" height="40" as="geometry" />
        </mxCell>
        <mxCell id="PL-AgUQmlZ-1JZNhK2am-90" value="D" style="whiteSpace=wrap;html=1;aspect=fixed;fontStyle=1" parent="1" vertex="1">
          <mxGeometry x="960" y="1160" width="40" height="40" as="geometry" />
        </mxCell>
        <mxCell id="PL-AgUQmlZ-1JZNhK2am-91" value="" style="whiteSpace=wrap;html=1;aspect=fixed;fontStyle=1" parent="1" vertex="1">
          <mxGeometry x="1000" y="1160" width="40" height="40" as="geometry" />
        </mxCell>
        <mxCell id="PL-AgUQmlZ-1JZNhK2am-92" value="" style="whiteSpace=wrap;html=1;aspect=fixed;fontStyle=1" parent="1" vertex="1">
          <mxGeometry x="1040" y="1160" width="40" height="40" as="geometry" />
        </mxCell>
        <mxCell id="PL-AgUQmlZ-1JZNhK2am-93" value="" style="whiteSpace=wrap;html=1;aspect=fixed;fontStyle=1" parent="1" vertex="1">
          <mxGeometry x="1080" y="1160" width="40" height="40" as="geometry" />
        </mxCell>
        <mxCell id="PL-AgUQmlZ-1JZNhK2am-94" value="" style="whiteSpace=wrap;html=1;aspect=fixed;fontStyle=1" parent="1" vertex="1">
          <mxGeometry x="1120" y="1160" width="40" height="40" as="geometry" />
        </mxCell>
        <mxCell id="PL-AgUQmlZ-1JZNhK2am-95" value="&lt;font color=&quot;#999999&quot;&gt;A&lt;/font&gt;" style="whiteSpace=wrap;html=1;aspect=fixed;fontStyle=1" parent="1" vertex="1">
          <mxGeometry x="360" y="1280" width="40" height="40" as="geometry" />
        </mxCell>
        <mxCell id="PL-AgUQmlZ-1JZNhK2am-96" value="&lt;font color=&quot;#999999&quot;&gt;C&lt;/font&gt;" style="whiteSpace=wrap;html=1;aspect=fixed;fontStyle=1" parent="1" vertex="1">
          <mxGeometry x="440" y="1280" width="40" height="40" as="geometry" />
        </mxCell>
        <mxCell id="PL-AgUQmlZ-1JZNhK2am-97" value="&lt;font color=&quot;#999999&quot;&gt;B&lt;/font&gt;" style="whiteSpace=wrap;html=1;aspect=fixed;fontStyle=1" parent="1" vertex="1">
          <mxGeometry x="400" y="1280" width="40" height="40" as="geometry" />
        </mxCell>
        <mxCell id="PL-AgUQmlZ-1JZNhK2am-98" value="&lt;font color=&quot;#999999&quot;&gt;D&lt;/font&gt;" style="whiteSpace=wrap;html=1;aspect=fixed;fontStyle=1" parent="1" vertex="1">
          <mxGeometry x="480" y="1280" width="40" height="40" as="geometry" />
        </mxCell>
        <mxCell id="PL-AgUQmlZ-1JZNhK2am-99" value="&lt;font color=&quot;#999999&quot;&gt;G&lt;/font&gt;" style="whiteSpace=wrap;html=1;aspect=fixed;fontStyle=1" parent="1" vertex="1">
          <mxGeometry x="520" y="1280" width="40" height="40" as="geometry" />
        </mxCell>
        <mxCell id="PL-AgUQmlZ-1JZNhK2am-100" value="&lt;font color=&quot;#999999&quot;&gt;E&lt;/font&gt;" style="whiteSpace=wrap;html=1;aspect=fixed;fontStyle=1" parent="1" vertex="1">
          <mxGeometry x="560" y="1280" width="40" height="40" as="geometry" />
        </mxCell>
        <mxCell id="PL-AgUQmlZ-1JZNhK2am-101" value="F" style="whiteSpace=wrap;html=1;aspect=fixed;fontStyle=1" parent="1" vertex="1">
          <mxGeometry x="600" y="1280" width="40" height="40" as="geometry" />
        </mxCell>
        <mxCell id="PL-AgUQmlZ-1JZNhK2am-102" value="F" style="whiteSpace=wrap;html=1;aspect=fixed;fontStyle=1" parent="1" vertex="1">
          <mxGeometry x="640" y="1280" width="40" height="40" as="geometry" />
        </mxCell>
        <mxCell id="PL-AgUQmlZ-1JZNhK2am-103" value="A" style="whiteSpace=wrap;html=1;aspect=fixed;fontStyle=1" parent="1" vertex="1">
          <mxGeometry x="840" y="1280" width="40" height="40" as="geometry" />
        </mxCell>
        <mxCell id="PL-AgUQmlZ-1JZNhK2am-104" value="C" style="whiteSpace=wrap;html=1;aspect=fixed;fontStyle=1" parent="1" vertex="1">
          <mxGeometry x="920" y="1280" width="40" height="40" as="geometry" />
        </mxCell>
        <mxCell id="PL-AgUQmlZ-1JZNhK2am-105" value="B" style="whiteSpace=wrap;html=1;aspect=fixed;fontStyle=1" parent="1" vertex="1">
          <mxGeometry x="880" y="1280" width="40" height="40" as="geometry" />
        </mxCell>
        <mxCell id="PL-AgUQmlZ-1JZNhK2am-106" value="D" style="whiteSpace=wrap;html=1;aspect=fixed;fontStyle=1" parent="1" vertex="1">
          <mxGeometry x="960" y="1280" width="40" height="40" as="geometry" />
        </mxCell>
        <mxCell id="PL-AgUQmlZ-1JZNhK2am-107" value="G" style="whiteSpace=wrap;html=1;aspect=fixed;fontStyle=1" parent="1" vertex="1">
          <mxGeometry x="1000" y="1280" width="40" height="40" as="geometry" />
        </mxCell>
        <mxCell id="PL-AgUQmlZ-1JZNhK2am-108" value="E" style="whiteSpace=wrap;html=1;aspect=fixed;fontStyle=1" parent="1" vertex="1">
          <mxGeometry x="1040" y="1280" width="40" height="40" as="geometry" />
        </mxCell>
        <mxCell id="PL-AgUQmlZ-1JZNhK2am-109" value="" style="whiteSpace=wrap;html=1;aspect=fixed;fontStyle=1" parent="1" vertex="1">
          <mxGeometry x="1080" y="1280" width="40" height="40" as="geometry" />
        </mxCell>
        <mxCell id="PL-AgUQmlZ-1JZNhK2am-110" value="" style="whiteSpace=wrap;html=1;aspect=fixed;fontStyle=1" parent="1" vertex="1">
          <mxGeometry x="1120" y="1280" width="40" height="40" as="geometry" />
        </mxCell>
        <mxCell id="PL-AgUQmlZ-1JZNhK2am-111" value="" style="whiteSpace=wrap;html=1;aspect=fixed;fontStyle=1" parent="1" vertex="1">
          <mxGeometry x="680" y="680" width="40" height="40" as="geometry" />
        </mxCell>
        <mxCell id="PL-AgUQmlZ-1JZNhK2am-112" value="" style="whiteSpace=wrap;html=1;aspect=fixed;fontStyle=1" parent="1" vertex="1">
          <mxGeometry x="680" y="800" width="40" height="40" as="geometry" />
        </mxCell>
        <mxCell id="PL-AgUQmlZ-1JZNhK2am-113" value="" style="whiteSpace=wrap;html=1;aspect=fixed;fontStyle=1" parent="1" vertex="1">
          <mxGeometry x="680" y="920" width="40" height="40" as="geometry" />
        </mxCell>
        <mxCell id="PL-AgUQmlZ-1JZNhK2am-114" value="" style="whiteSpace=wrap;html=1;aspect=fixed;fontStyle=1" parent="1" vertex="1">
          <mxGeometry x="680" y="1040" width="40" height="40" as="geometry" />
        </mxCell>
        <mxCell id="PL-AgUQmlZ-1JZNhK2am-115" value="" style="whiteSpace=wrap;html=1;aspect=fixed;fontStyle=1" parent="1" vertex="1">
          <mxGeometry x="680" y="1160" width="40" height="40" as="geometry" />
        </mxCell>
        <mxCell id="PL-AgUQmlZ-1JZNhK2am-116" value="F" style="whiteSpace=wrap;html=1;aspect=fixed;fontStyle=1" parent="1" vertex="1">
          <mxGeometry x="680" y="1280" width="40" height="40" as="geometry" />
        </mxCell>
        <mxCell id="PL-AgUQmlZ-1JZNhK2am-123" value="" style="whiteSpace=wrap;html=1;aspect=fixed;fontStyle=1" parent="1" vertex="1">
          <mxGeometry x="1160" y="680" width="40" height="40" as="geometry" />
        </mxCell>
        <mxCell id="PL-AgUQmlZ-1JZNhK2am-124" value="" style="whiteSpace=wrap;html=1;aspect=fixed;fontStyle=1" parent="1" vertex="1">
          <mxGeometry x="1160" y="800" width="40" height="40" as="geometry" />
        </mxCell>
        <mxCell id="PL-AgUQmlZ-1JZNhK2am-125" value="" style="whiteSpace=wrap;html=1;aspect=fixed;fontStyle=1" parent="1" vertex="1">
          <mxGeometry x="1160" y="920" width="40" height="40" as="geometry" />
        </mxCell>
        <mxCell id="PL-AgUQmlZ-1JZNhK2am-126" value="" style="whiteSpace=wrap;html=1;aspect=fixed;fontStyle=1" parent="1" vertex="1">
          <mxGeometry x="1160" y="1040" width="40" height="40" as="geometry" />
        </mxCell>
        <mxCell id="PL-AgUQmlZ-1JZNhK2am-127" value="" style="whiteSpace=wrap;html=1;aspect=fixed;fontStyle=1" parent="1" vertex="1">
          <mxGeometry x="1160" y="1160" width="40" height="40" as="geometry" />
        </mxCell>
        <mxCell id="PL-AgUQmlZ-1JZNhK2am-128" value="" style="whiteSpace=wrap;html=1;aspect=fixed;fontStyle=1" parent="1" vertex="1">
          <mxGeometry x="1160" y="1280" width="40" height="40" as="geometry" />
        </mxCell>
        <mxCell id="PL-AgUQmlZ-1JZNhK2am-129" value="&lt;font color=&quot;#999999&quot;&gt;A&lt;/font&gt;" style="whiteSpace=wrap;html=1;aspect=fixed;fontStyle=1" parent="1" vertex="1">
          <mxGeometry x="360" y="1400" width="40" height="40" as="geometry" />
        </mxCell>
        <mxCell id="PL-AgUQmlZ-1JZNhK2am-130" value="&lt;font color=&quot;#999999&quot;&gt;C&lt;/font&gt;" style="whiteSpace=wrap;html=1;aspect=fixed;fontStyle=1" parent="1" vertex="1">
          <mxGeometry x="440" y="1400" width="40" height="40" as="geometry" />
        </mxCell>
        <mxCell id="PL-AgUQmlZ-1JZNhK2am-131" value="&lt;font color=&quot;#999999&quot;&gt;B&lt;/font&gt;" style="whiteSpace=wrap;html=1;aspect=fixed;fontStyle=1" parent="1" vertex="1">
          <mxGeometry x="400" y="1400" width="40" height="40" as="geometry" />
        </mxCell>
        <mxCell id="PL-AgUQmlZ-1JZNhK2am-132" value="&lt;font color=&quot;#999999&quot;&gt;D&lt;/font&gt;" style="whiteSpace=wrap;html=1;aspect=fixed;fontStyle=1" parent="1" vertex="1">
          <mxGeometry x="480" y="1400" width="40" height="40" as="geometry" />
        </mxCell>
        <mxCell id="PL-AgUQmlZ-1JZNhK2am-133" value="&lt;font color=&quot;#999999&quot;&gt;G&lt;/font&gt;" style="whiteSpace=wrap;html=1;aspect=fixed;fontStyle=1" parent="1" vertex="1">
          <mxGeometry x="520" y="1400" width="40" height="40" as="geometry" />
        </mxCell>
        <mxCell id="PL-AgUQmlZ-1JZNhK2am-134" value="&lt;font color=&quot;#999999&quot;&gt;E&lt;/font&gt;" style="whiteSpace=wrap;html=1;aspect=fixed;fontStyle=1" parent="1" vertex="1">
          <mxGeometry x="560" y="1400" width="40" height="40" as="geometry" />
        </mxCell>
        <mxCell id="PL-AgUQmlZ-1JZNhK2am-135" value="&lt;font color=&quot;#999999&quot;&gt;F&lt;/font&gt;" style="whiteSpace=wrap;html=1;aspect=fixed;fontStyle=1" parent="1" vertex="1">
          <mxGeometry x="600" y="1400" width="40" height="40" as="geometry" />
        </mxCell>
        <mxCell id="PL-AgUQmlZ-1JZNhK2am-136" value="F" style="whiteSpace=wrap;html=1;aspect=fixed;fontStyle=1" parent="1" vertex="1">
          <mxGeometry x="640" y="1400" width="40" height="40" as="geometry" />
        </mxCell>
        <mxCell id="PL-AgUQmlZ-1JZNhK2am-137" value="A" style="whiteSpace=wrap;html=1;aspect=fixed;fontStyle=1" parent="1" vertex="1">
          <mxGeometry x="840" y="1400" width="40" height="40" as="geometry" />
        </mxCell>
        <mxCell id="PL-AgUQmlZ-1JZNhK2am-138" value="C" style="whiteSpace=wrap;html=1;aspect=fixed;fontStyle=1" parent="1" vertex="1">
          <mxGeometry x="920" y="1400" width="40" height="40" as="geometry" />
        </mxCell>
        <mxCell id="PL-AgUQmlZ-1JZNhK2am-139" value="B" style="whiteSpace=wrap;html=1;aspect=fixed;fontStyle=1" parent="1" vertex="1">
          <mxGeometry x="880" y="1400" width="40" height="40" as="geometry" />
        </mxCell>
        <mxCell id="PL-AgUQmlZ-1JZNhK2am-140" value="D" style="whiteSpace=wrap;html=1;aspect=fixed;fontStyle=1" parent="1" vertex="1">
          <mxGeometry x="960" y="1400" width="40" height="40" as="geometry" />
        </mxCell>
        <mxCell id="PL-AgUQmlZ-1JZNhK2am-141" value="G" style="whiteSpace=wrap;html=1;aspect=fixed;fontStyle=1" parent="1" vertex="1">
          <mxGeometry x="1000" y="1400" width="40" height="40" as="geometry" />
        </mxCell>
        <mxCell id="PL-AgUQmlZ-1JZNhK2am-142" value="E" style="whiteSpace=wrap;html=1;aspect=fixed;fontStyle=1" parent="1" vertex="1">
          <mxGeometry x="1040" y="1400" width="40" height="40" as="geometry" />
        </mxCell>
        <mxCell id="PL-AgUQmlZ-1JZNhK2am-143" value="F" style="whiteSpace=wrap;html=1;aspect=fixed;fontStyle=1" parent="1" vertex="1">
          <mxGeometry x="1080" y="1400" width="40" height="40" as="geometry" />
        </mxCell>
        <mxCell id="PL-AgUQmlZ-1JZNhK2am-144" value="" style="whiteSpace=wrap;html=1;aspect=fixed;fontStyle=1" parent="1" vertex="1">
          <mxGeometry x="1120" y="1400" width="40" height="40" as="geometry" />
        </mxCell>
        <mxCell id="PL-AgUQmlZ-1JZNhK2am-145" value="F" style="whiteSpace=wrap;html=1;aspect=fixed;fontStyle=1" parent="1" vertex="1">
          <mxGeometry x="680" y="1400" width="40" height="40" as="geometry" />
        </mxCell>
        <mxCell id="PL-AgUQmlZ-1JZNhK2am-146" value="" style="whiteSpace=wrap;html=1;aspect=fixed;fontStyle=1" parent="1" vertex="1">
          <mxGeometry x="1160" y="1400" width="40" height="40" as="geometry" />
        </mxCell>
        <mxCell id="PL-AgUQmlZ-1JZNhK2am-147" value="&lt;font color=&quot;#999999&quot;&gt;A&lt;/font&gt;" style="whiteSpace=wrap;html=1;aspect=fixed;fontStyle=1" parent="1" vertex="1">
          <mxGeometry x="360" y="1520" width="40" height="40" as="geometry" />
        </mxCell>
        <mxCell id="PL-AgUQmlZ-1JZNhK2am-148" value="&lt;font color=&quot;#999999&quot;&gt;C&lt;/font&gt;" style="whiteSpace=wrap;html=1;aspect=fixed;fontStyle=1" parent="1" vertex="1">
          <mxGeometry x="440" y="1520" width="40" height="40" as="geometry" />
        </mxCell>
        <mxCell id="PL-AgUQmlZ-1JZNhK2am-149" value="&lt;font color=&quot;#999999&quot;&gt;B&lt;/font&gt;" style="whiteSpace=wrap;html=1;aspect=fixed;fontStyle=1" parent="1" vertex="1">
          <mxGeometry x="400" y="1520" width="40" height="40" as="geometry" />
        </mxCell>
        <mxCell id="PL-AgUQmlZ-1JZNhK2am-150" value="&lt;font color=&quot;#999999&quot;&gt;D&lt;/font&gt;" style="whiteSpace=wrap;html=1;aspect=fixed;fontStyle=1" parent="1" vertex="1">
          <mxGeometry x="480" y="1520" width="40" height="40" as="geometry" />
        </mxCell>
        <mxCell id="PL-AgUQmlZ-1JZNhK2am-151" value="&lt;font color=&quot;#999999&quot;&gt;G&lt;/font&gt;" style="whiteSpace=wrap;html=1;aspect=fixed;fontStyle=1" parent="1" vertex="1">
          <mxGeometry x="520" y="1520" width="40" height="40" as="geometry" />
        </mxCell>
        <mxCell id="PL-AgUQmlZ-1JZNhK2am-152" value="&lt;font color=&quot;#999999&quot;&gt;E&lt;/font&gt;" style="whiteSpace=wrap;html=1;aspect=fixed;fontStyle=1" parent="1" vertex="1">
          <mxGeometry x="560" y="1520" width="40" height="40" as="geometry" />
        </mxCell>
        <mxCell id="PL-AgUQmlZ-1JZNhK2am-153" value="&lt;font color=&quot;#999999&quot;&gt;F&lt;/font&gt;" style="whiteSpace=wrap;html=1;aspect=fixed;fontStyle=1" parent="1" vertex="1">
          <mxGeometry x="600" y="1520" width="40" height="40" as="geometry" />
        </mxCell>
        <mxCell id="PL-AgUQmlZ-1JZNhK2am-154" value="&lt;font color=&quot;#999999&quot;&gt;F&lt;/font&gt;" style="whiteSpace=wrap;html=1;aspect=fixed;fontStyle=1" parent="1" vertex="1">
          <mxGeometry x="640" y="1520" width="40" height="40" as="geometry" />
        </mxCell>
        <mxCell id="PL-AgUQmlZ-1JZNhK2am-155" value="A" style="whiteSpace=wrap;html=1;aspect=fixed;fontStyle=1" parent="1" vertex="1">
          <mxGeometry x="840" y="1520" width="40" height="40" as="geometry" />
        </mxCell>
        <mxCell id="PL-AgUQmlZ-1JZNhK2am-156" value="C" style="whiteSpace=wrap;html=1;aspect=fixed;fontStyle=1" parent="1" vertex="1">
          <mxGeometry x="920" y="1520" width="40" height="40" as="geometry" />
        </mxCell>
        <mxCell id="PL-AgUQmlZ-1JZNhK2am-157" value="B" style="whiteSpace=wrap;html=1;aspect=fixed;fontStyle=1" parent="1" vertex="1">
          <mxGeometry x="880" y="1520" width="40" height="40" as="geometry" />
        </mxCell>
        <mxCell id="PL-AgUQmlZ-1JZNhK2am-158" value="D" style="whiteSpace=wrap;html=1;aspect=fixed;fontStyle=1" parent="1" vertex="1">
          <mxGeometry x="960" y="1520" width="40" height="40" as="geometry" />
        </mxCell>
        <mxCell id="PL-AgUQmlZ-1JZNhK2am-159" value="G" style="whiteSpace=wrap;html=1;aspect=fixed;fontStyle=1" parent="1" vertex="1">
          <mxGeometry x="1000" y="1520" width="40" height="40" as="geometry" />
        </mxCell>
        <mxCell id="PL-AgUQmlZ-1JZNhK2am-160" value="E" style="whiteSpace=wrap;html=1;aspect=fixed;fontStyle=1" parent="1" vertex="1">
          <mxGeometry x="1040" y="1520" width="40" height="40" as="geometry" />
        </mxCell>
        <mxCell id="PL-AgUQmlZ-1JZNhK2am-161" value="F" style="whiteSpace=wrap;html=1;aspect=fixed;fontStyle=1" parent="1" vertex="1">
          <mxGeometry x="1080" y="1520" width="40" height="40" as="geometry" />
        </mxCell>
        <mxCell id="PL-AgUQmlZ-1JZNhK2am-162" value="" style="whiteSpace=wrap;html=1;aspect=fixed;fontStyle=1" parent="1" vertex="1">
          <mxGeometry x="1120" y="1520" width="40" height="40" as="geometry" />
        </mxCell>
        <mxCell id="PL-AgUQmlZ-1JZNhK2am-163" value="F" style="whiteSpace=wrap;html=1;aspect=fixed;fontStyle=1" parent="1" vertex="1">
          <mxGeometry x="680" y="1520" width="40" height="40" as="geometry" />
        </mxCell>
        <mxCell id="PL-AgUQmlZ-1JZNhK2am-164" value="" style="whiteSpace=wrap;html=1;aspect=fixed;fontStyle=1" parent="1" vertex="1">
          <mxGeometry x="1160" y="1520" width="40" height="40" as="geometry" />
        </mxCell>
        <mxCell id="PL-AgUQmlZ-1JZNhK2am-165" value="&lt;font color=&quot;#999999&quot;&gt;A&lt;/font&gt;" style="whiteSpace=wrap;html=1;aspect=fixed;fontStyle=1" parent="1" vertex="1">
          <mxGeometry x="360" y="1640" width="40" height="40" as="geometry" />
        </mxCell>
        <mxCell id="PL-AgUQmlZ-1JZNhK2am-166" value="&lt;font color=&quot;#999999&quot;&gt;C&lt;/font&gt;" style="whiteSpace=wrap;html=1;aspect=fixed;fontStyle=1" parent="1" vertex="1">
          <mxGeometry x="440" y="1640" width="40" height="40" as="geometry" />
        </mxCell>
        <mxCell id="PL-AgUQmlZ-1JZNhK2am-167" value="&lt;font color=&quot;#999999&quot;&gt;B&lt;/font&gt;" style="whiteSpace=wrap;html=1;aspect=fixed;fontStyle=1" parent="1" vertex="1">
          <mxGeometry x="400" y="1640" width="40" height="40" as="geometry" />
        </mxCell>
        <mxCell id="PL-AgUQmlZ-1JZNhK2am-168" value="&lt;font color=&quot;#999999&quot;&gt;D&lt;/font&gt;" style="whiteSpace=wrap;html=1;aspect=fixed;fontStyle=1" parent="1" vertex="1">
          <mxGeometry x="480" y="1640" width="40" height="40" as="geometry" />
        </mxCell>
        <mxCell id="PL-AgUQmlZ-1JZNhK2am-169" value="&lt;font color=&quot;#999999&quot;&gt;G&lt;/font&gt;" style="whiteSpace=wrap;html=1;aspect=fixed;fontStyle=1" parent="1" vertex="1">
          <mxGeometry x="520" y="1640" width="40" height="40" as="geometry" />
        </mxCell>
        <mxCell id="PL-AgUQmlZ-1JZNhK2am-170" value="&lt;font color=&quot;#999999&quot;&gt;E&lt;/font&gt;" style="whiteSpace=wrap;html=1;aspect=fixed;fontStyle=1" parent="1" vertex="1">
          <mxGeometry x="560" y="1640" width="40" height="40" as="geometry" />
        </mxCell>
        <mxCell id="PL-AgUQmlZ-1JZNhK2am-171" value="&lt;font color=&quot;#999999&quot;&gt;F&lt;/font&gt;" style="whiteSpace=wrap;html=1;aspect=fixed;fontStyle=1" parent="1" vertex="1">
          <mxGeometry x="600" y="1640" width="40" height="40" as="geometry" />
        </mxCell>
        <mxCell id="PL-AgUQmlZ-1JZNhK2am-172" value="&lt;font color=&quot;#999999&quot;&gt;F&lt;/font&gt;" style="whiteSpace=wrap;html=1;aspect=fixed;fontStyle=1" parent="1" vertex="1">
          <mxGeometry x="640" y="1640" width="40" height="40" as="geometry" />
        </mxCell>
        <mxCell id="PL-AgUQmlZ-1JZNhK2am-173" value="A" style="whiteSpace=wrap;html=1;aspect=fixed;fontStyle=1" parent="1" vertex="1">
          <mxGeometry x="840" y="1640" width="40" height="40" as="geometry" />
        </mxCell>
        <mxCell id="PL-AgUQmlZ-1JZNhK2am-174" value="C" style="whiteSpace=wrap;html=1;aspect=fixed;fontStyle=1" parent="1" vertex="1">
          <mxGeometry x="920" y="1640" width="40" height="40" as="geometry" />
        </mxCell>
        <mxCell id="PL-AgUQmlZ-1JZNhK2am-175" value="B" style="whiteSpace=wrap;html=1;aspect=fixed;fontStyle=1" parent="1" vertex="1">
          <mxGeometry x="880" y="1640" width="40" height="40" as="geometry" />
        </mxCell>
        <mxCell id="PL-AgUQmlZ-1JZNhK2am-176" value="D" style="whiteSpace=wrap;html=1;aspect=fixed;fontStyle=1" parent="1" vertex="1">
          <mxGeometry x="960" y="1640" width="40" height="40" as="geometry" />
        </mxCell>
        <mxCell id="PL-AgUQmlZ-1JZNhK2am-177" value="G" style="whiteSpace=wrap;html=1;aspect=fixed;fontStyle=1" parent="1" vertex="1">
          <mxGeometry x="1000" y="1640" width="40" height="40" as="geometry" />
        </mxCell>
        <mxCell id="PL-AgUQmlZ-1JZNhK2am-178" value="E" style="whiteSpace=wrap;html=1;aspect=fixed;fontStyle=1" parent="1" vertex="1">
          <mxGeometry x="1040" y="1640" width="40" height="40" as="geometry" />
        </mxCell>
        <mxCell id="PL-AgUQmlZ-1JZNhK2am-179" value="F" style="whiteSpace=wrap;html=1;aspect=fixed;fontStyle=1" parent="1" vertex="1">
          <mxGeometry x="1080" y="1640" width="40" height="40" as="geometry" />
        </mxCell>
        <mxCell id="PL-AgUQmlZ-1JZNhK2am-180" value="" style="whiteSpace=wrap;html=1;aspect=fixed;fontStyle=1" parent="1" vertex="1">
          <mxGeometry x="1120" y="1640" width="40" height="40" as="geometry" />
        </mxCell>
        <mxCell id="PL-AgUQmlZ-1JZNhK2am-181" value="&lt;font color=&quot;#999999&quot;&gt;F&lt;/font&gt;" style="whiteSpace=wrap;html=1;aspect=fixed;fontStyle=1" parent="1" vertex="1">
          <mxGeometry x="680" y="1640" width="40" height="40" as="geometry" />
        </mxCell>
        <mxCell id="PL-AgUQmlZ-1JZNhK2am-182" value="" style="whiteSpace=wrap;html=1;aspect=fixed;fontStyle=1" parent="1" vertex="1">
          <mxGeometry x="1160" y="1640" width="40" height="40" as="geometry" />
        </mxCell>
        <mxCell id="WqB-buCOvOlZIuGjWH2t-10" style="rounded=0;orthogonalLoop=1;jettySize=auto;html=1;exitX=1;exitY=0.5;exitDx=0;exitDy=0;" edge="1" parent="1" source="WqB-buCOvOlZIuGjWH2t-1" target="WqB-buCOvOlZIuGjWH2t-2">
          <mxGeometry relative="1" as="geometry" />
        </mxCell>
        <mxCell id="WqB-buCOvOlZIuGjWH2t-1" value="Visitation Order is effectively level order traversal" style="text;html=1;strokeColor=none;fillColor=none;align=center;verticalAlign=middle;whiteSpace=wrap;rounded=0;" vertex="1" parent="1">
          <mxGeometry x="250" y="150" width="110" height="30" as="geometry" />
        </mxCell>
        <mxCell id="WqB-buCOvOlZIuGjWH2t-2" value="&lt;b&gt;&lt;i&gt;Initial&lt;/i&gt;&lt;/b&gt;" style="text;html=1;strokeColor=none;fillColor=none;align=center;verticalAlign=middle;whiteSpace=wrap;rounded=0;" vertex="1" parent="1">
          <mxGeometry x="430" y="170" width="60" height="30" as="geometry" />
        </mxCell>
        <mxCell id="WqB-buCOvOlZIuGjWH2t-3" value="&lt;b&gt;&lt;i&gt;1&lt;/i&gt;&lt;/b&gt;" style="text;html=1;strokeColor=none;fillColor=none;align=center;verticalAlign=middle;whiteSpace=wrap;rounded=0;" vertex="1" parent="1">
          <mxGeometry x="650" y="170" width="20" height="30" as="geometry" />
        </mxCell>
        <mxCell id="WqB-buCOvOlZIuGjWH2t-4" value="&lt;b&gt;&lt;i&gt;2&lt;/i&gt;&lt;/b&gt;" style="text;html=1;strokeColor=none;fillColor=none;align=center;verticalAlign=middle;whiteSpace=wrap;rounded=0;" vertex="1" parent="1">
          <mxGeometry x="470" y="325" width="20" height="30" as="geometry" />
        </mxCell>
        <mxCell id="WqB-buCOvOlZIuGjWH2t-5" value="&lt;b&gt;&lt;i&gt;3&lt;/i&gt;&lt;/b&gt;" style="text;html=1;strokeColor=none;fillColor=none;align=center;verticalAlign=middle;whiteSpace=wrap;rounded=0;" vertex="1" parent="1">
          <mxGeometry x="670" y="330" width="20" height="30" as="geometry" />
        </mxCell>
        <mxCell id="WqB-buCOvOlZIuGjWH2t-6" value="&lt;b&gt;&lt;i&gt;4&lt;/i&gt;&lt;/b&gt;" style="text;html=1;strokeColor=none;fillColor=none;align=center;verticalAlign=middle;whiteSpace=wrap;rounded=0;" vertex="1" parent="1">
          <mxGeometry x="880" y="340" width="20" height="30" as="geometry" />
        </mxCell>
        <mxCell id="WqB-buCOvOlZIuGjWH2t-7" value="&lt;b&gt;&lt;i&gt;5&lt;/i&gt;&lt;/b&gt;" style="text;html=1;strokeColor=none;fillColor=none;align=center;verticalAlign=middle;whiteSpace=wrap;rounded=0;" vertex="1" parent="1">
          <mxGeometry x="470" y="490" width="20" height="30" as="geometry" />
        </mxCell>
        <mxCell id="WqB-buCOvOlZIuGjWH2t-8" value="&lt;b&gt;&lt;i&gt;6&lt;/i&gt;&lt;/b&gt;" style="text;html=1;strokeColor=none;fillColor=none;align=center;verticalAlign=middle;whiteSpace=wrap;rounded=0;" vertex="1" parent="1">
          <mxGeometry x="670" y="490" width="20" height="30" as="geometry" />
        </mxCell>
        <mxCell id="WqB-buCOvOlZIuGjWH2t-11" value="null" style="text;html=1;strokeColor=none;fillColor=none;align=center;verticalAlign=middle;whiteSpace=wrap;rounded=0;" vertex="1" parent="1">
          <mxGeometry x="840" y="850" width="40" height="30" as="geometry" />
        </mxCell>
        <mxCell id="WqB-buCOvOlZIuGjWH2t-12" value="Parent Node" style="text;html=1;strokeColor=none;fillColor=none;align=center;verticalAlign=middle;whiteSpace=wrap;rounded=0;fontStyle=1" vertex="1" parent="1">
          <mxGeometry x="760" y="850" width="80" height="30" as="geometry" />
        </mxCell>
        <mxCell id="WqB-buCOvOlZIuGjWH2t-13" value="Parent Node" style="text;html=1;strokeColor=none;fillColor=none;align=center;verticalAlign=middle;whiteSpace=wrap;rounded=0;fontStyle=1" vertex="1" parent="1">
          <mxGeometry x="760" y="970" width="80" height="30" as="geometry" />
        </mxCell>
        <mxCell id="WqB-buCOvOlZIuGjWH2t-14" value="Parent Node" style="text;html=1;strokeColor=none;fillColor=none;align=center;verticalAlign=middle;whiteSpace=wrap;rounded=0;fontStyle=1" vertex="1" parent="1">
          <mxGeometry x="760" y="1080" width="80" height="30" as="geometry" />
        </mxCell>
        <mxCell id="WqB-buCOvOlZIuGjWH2t-15" value="Parent Node" style="text;html=1;strokeColor=none;fillColor=none;align=center;verticalAlign=middle;whiteSpace=wrap;rounded=0;fontStyle=1" vertex="1" parent="1">
          <mxGeometry x="760" y="1210" width="80" height="30" as="geometry" />
        </mxCell>
        <mxCell id="WqB-buCOvOlZIuGjWH2t-16" value="Parent Node" style="text;html=1;strokeColor=none;fillColor=none;align=center;verticalAlign=middle;whiteSpace=wrap;rounded=0;fontStyle=1" vertex="1" parent="1">
          <mxGeometry x="760" y="1330" width="80" height="30" as="geometry" />
        </mxCell>
        <mxCell id="WqB-buCOvOlZIuGjWH2t-17" value="Parent Node" style="text;html=1;strokeColor=none;fillColor=none;align=center;verticalAlign=middle;whiteSpace=wrap;rounded=0;fontStyle=1" vertex="1" parent="1">
          <mxGeometry x="760" y="1450" width="80" height="30" as="geometry" />
        </mxCell>
        <mxCell id="WqB-buCOvOlZIuGjWH2t-18" value="Parent Node" style="text;html=1;strokeColor=none;fillColor=none;align=center;verticalAlign=middle;whiteSpace=wrap;rounded=0;fontStyle=1" vertex="1" parent="1">
          <mxGeometry x="760" y="1570" width="80" height="30" as="geometry" />
        </mxCell>
        <mxCell id="WqB-buCOvOlZIuGjWH2t-19" value="Parent Node" style="text;html=1;strokeColor=none;fillColor=none;align=center;verticalAlign=middle;whiteSpace=wrap;rounded=0;fontStyle=1" vertex="1" parent="1">
          <mxGeometry x="760" y="1690" width="80" height="30" as="geometry" />
        </mxCell>
        <mxCell id="WqB-buCOvOlZIuGjWH2t-20" value="null" style="text;html=1;strokeColor=none;fillColor=none;align=center;verticalAlign=middle;whiteSpace=wrap;rounded=0;" vertex="1" parent="1">
          <mxGeometry x="840" y="970" width="40" height="30" as="geometry" />
        </mxCell>
        <mxCell id="WqB-buCOvOlZIuGjWH2t-22" value="A" style="text;html=1;strokeColor=none;fillColor=none;align=center;verticalAlign=middle;whiteSpace=wrap;rounded=0;" vertex="1" parent="1">
          <mxGeometry x="880" y="970" width="40" height="30" as="geometry" />
        </mxCell>
        <mxCell id="WqB-buCOvOlZIuGjWH2t-23" value="null" style="text;html=1;strokeColor=none;fillColor=none;align=center;verticalAlign=middle;whiteSpace=wrap;rounded=0;" vertex="1" parent="1">
          <mxGeometry x="840" y="1080" width="40" height="30" as="geometry" />
        </mxCell>
        <mxCell id="WqB-buCOvOlZIuGjWH2t-24" value="A" style="text;html=1;strokeColor=none;fillColor=none;align=center;verticalAlign=middle;whiteSpace=wrap;rounded=0;" vertex="1" parent="1">
          <mxGeometry x="880" y="1080" width="40" height="30" as="geometry" />
        </mxCell>
        <mxCell id="WqB-buCOvOlZIuGjWH2t-28" value="A" style="text;html=1;strokeColor=none;fillColor=none;align=center;verticalAlign=middle;whiteSpace=wrap;rounded=0;" vertex="1" parent="1">
          <mxGeometry x="920" y="1080" width="40" height="30" as="geometry" />
        </mxCell>
        <mxCell id="WqB-buCOvOlZIuGjWH2t-29" value="null" style="text;html=1;strokeColor=none;fillColor=none;align=center;verticalAlign=middle;whiteSpace=wrap;rounded=0;" vertex="1" parent="1">
          <mxGeometry x="840" y="1210" width="40" height="30" as="geometry" />
        </mxCell>
        <mxCell id="WqB-buCOvOlZIuGjWH2t-30" value="A" style="text;html=1;strokeColor=none;fillColor=none;align=center;verticalAlign=middle;whiteSpace=wrap;rounded=0;" vertex="1" parent="1">
          <mxGeometry x="880" y="1210" width="40" height="30" as="geometry" />
        </mxCell>
        <mxCell id="WqB-buCOvOlZIuGjWH2t-31" value="A" style="text;html=1;strokeColor=none;fillColor=none;align=center;verticalAlign=middle;whiteSpace=wrap;rounded=0;" vertex="1" parent="1">
          <mxGeometry x="920" y="1210" width="40" height="30" as="geometry" />
        </mxCell>
        <mxCell id="WqB-buCOvOlZIuGjWH2t-32" value="B" style="text;html=1;strokeColor=none;fillColor=none;align=center;verticalAlign=middle;whiteSpace=wrap;rounded=0;" vertex="1" parent="1">
          <mxGeometry x="960" y="1210" width="40" height="30" as="geometry" />
        </mxCell>
        <mxCell id="WqB-buCOvOlZIuGjWH2t-33" value="null" style="text;html=1;strokeColor=none;fillColor=none;align=center;verticalAlign=middle;whiteSpace=wrap;rounded=0;" vertex="1" parent="1">
          <mxGeometry x="840" y="1330" width="40" height="30" as="geometry" />
        </mxCell>
        <mxCell id="WqB-buCOvOlZIuGjWH2t-34" value="A" style="text;html=1;strokeColor=none;fillColor=none;align=center;verticalAlign=middle;whiteSpace=wrap;rounded=0;" vertex="1" parent="1">
          <mxGeometry x="880" y="1330" width="40" height="30" as="geometry" />
        </mxCell>
        <mxCell id="WqB-buCOvOlZIuGjWH2t-35" value="A" style="text;html=1;strokeColor=none;fillColor=none;align=center;verticalAlign=middle;whiteSpace=wrap;rounded=0;" vertex="1" parent="1">
          <mxGeometry x="920" y="1330" width="40" height="30" as="geometry" />
        </mxCell>
        <mxCell id="WqB-buCOvOlZIuGjWH2t-36" value="B" style="text;html=1;strokeColor=none;fillColor=none;align=center;verticalAlign=middle;whiteSpace=wrap;rounded=0;" vertex="1" parent="1">
          <mxGeometry x="960" y="1330" width="40" height="30" as="geometry" />
        </mxCell>
        <mxCell id="WqB-buCOvOlZIuGjWH2t-37" value="B" style="text;html=1;strokeColor=none;fillColor=none;align=center;verticalAlign=middle;whiteSpace=wrap;rounded=0;" vertex="1" parent="1">
          <mxGeometry x="1000" y="1330" width="40" height="30" as="geometry" />
        </mxCell>
        <mxCell id="WqB-buCOvOlZIuGjWH2t-38" value="null" style="text;html=1;strokeColor=none;fillColor=none;align=center;verticalAlign=middle;whiteSpace=wrap;rounded=0;" vertex="1" parent="1">
          <mxGeometry x="840" y="1450" width="40" height="30" as="geometry" />
        </mxCell>
        <mxCell id="WqB-buCOvOlZIuGjWH2t-39" value="A" style="text;html=1;strokeColor=none;fillColor=none;align=center;verticalAlign=middle;whiteSpace=wrap;rounded=0;" vertex="1" parent="1">
          <mxGeometry x="880" y="1450" width="40" height="30" as="geometry" />
        </mxCell>
        <mxCell id="WqB-buCOvOlZIuGjWH2t-40" value="A" style="text;html=1;strokeColor=none;fillColor=none;align=center;verticalAlign=middle;whiteSpace=wrap;rounded=0;" vertex="1" parent="1">
          <mxGeometry x="920" y="1450" width="40" height="30" as="geometry" />
        </mxCell>
        <mxCell id="WqB-buCOvOlZIuGjWH2t-41" value="B" style="text;html=1;strokeColor=none;fillColor=none;align=center;verticalAlign=middle;whiteSpace=wrap;rounded=0;" vertex="1" parent="1">
          <mxGeometry x="960" y="1450" width="40" height="30" as="geometry" />
        </mxCell>
        <mxCell id="WqB-buCOvOlZIuGjWH2t-42" value="C" style="text;html=1;strokeColor=none;fillColor=none;align=center;verticalAlign=middle;whiteSpace=wrap;rounded=0;" vertex="1" parent="1">
          <mxGeometry x="1040" y="1450" width="40" height="30" as="geometry" />
        </mxCell>
        <mxCell id="WqB-buCOvOlZIuGjWH2t-43" value="B" style="text;html=1;strokeColor=none;fillColor=none;align=center;verticalAlign=middle;whiteSpace=wrap;rounded=0;" vertex="1" parent="1">
          <mxGeometry x="1000" y="1450" width="40" height="30" as="geometry" />
        </mxCell>
        <mxCell id="WqB-buCOvOlZIuGjWH2t-44" value="null" style="text;html=1;strokeColor=none;fillColor=none;align=center;verticalAlign=middle;whiteSpace=wrap;rounded=0;" vertex="1" parent="1">
          <mxGeometry x="840" y="1570" width="40" height="30" as="geometry" />
        </mxCell>
        <mxCell id="WqB-buCOvOlZIuGjWH2t-45" value="A" style="text;html=1;strokeColor=none;fillColor=none;align=center;verticalAlign=middle;whiteSpace=wrap;rounded=0;" vertex="1" parent="1">
          <mxGeometry x="880" y="1570" width="40" height="30" as="geometry" />
        </mxCell>
        <mxCell id="WqB-buCOvOlZIuGjWH2t-46" value="A" style="text;html=1;strokeColor=none;fillColor=none;align=center;verticalAlign=middle;whiteSpace=wrap;rounded=0;" vertex="1" parent="1">
          <mxGeometry x="920" y="1570" width="40" height="30" as="geometry" />
        </mxCell>
        <mxCell id="WqB-buCOvOlZIuGjWH2t-47" value="B" style="text;html=1;strokeColor=none;fillColor=none;align=center;verticalAlign=middle;whiteSpace=wrap;rounded=0;" vertex="1" parent="1">
          <mxGeometry x="960" y="1570" width="40" height="30" as="geometry" />
        </mxCell>
        <mxCell id="WqB-buCOvOlZIuGjWH2t-48" value="C" style="text;html=1;strokeColor=none;fillColor=none;align=center;verticalAlign=middle;whiteSpace=wrap;rounded=0;" vertex="1" parent="1">
          <mxGeometry x="1040" y="1570" width="40" height="30" as="geometry" />
        </mxCell>
        <mxCell id="WqB-buCOvOlZIuGjWH2t-49" value="B" style="text;html=1;strokeColor=none;fillColor=none;align=center;verticalAlign=middle;whiteSpace=wrap;rounded=0;" vertex="1" parent="1">
          <mxGeometry x="1000" y="1570" width="40" height="30" as="geometry" />
        </mxCell>
        <mxCell id="WqB-buCOvOlZIuGjWH2t-50" value="D" style="text;html=1;strokeColor=none;fillColor=none;align=center;verticalAlign=middle;whiteSpace=wrap;rounded=0;" vertex="1" parent="1">
          <mxGeometry x="1080" y="1570" width="40" height="30" as="geometry" />
        </mxCell>
        <mxCell id="WqB-buCOvOlZIuGjWH2t-51" value="null" style="text;html=1;strokeColor=none;fillColor=none;align=center;verticalAlign=middle;whiteSpace=wrap;rounded=0;" vertex="1" parent="1">
          <mxGeometry x="840" y="1690" width="40" height="30" as="geometry" />
        </mxCell>
        <mxCell id="WqB-buCOvOlZIuGjWH2t-52" value="A" style="text;html=1;strokeColor=none;fillColor=none;align=center;verticalAlign=middle;whiteSpace=wrap;rounded=0;" vertex="1" parent="1">
          <mxGeometry x="880" y="1690" width="40" height="30" as="geometry" />
        </mxCell>
        <mxCell id="WqB-buCOvOlZIuGjWH2t-53" value="A" style="text;html=1;strokeColor=none;fillColor=none;align=center;verticalAlign=middle;whiteSpace=wrap;rounded=0;" vertex="1" parent="1">
          <mxGeometry x="920" y="1690" width="40" height="30" as="geometry" />
        </mxCell>
        <mxCell id="WqB-buCOvOlZIuGjWH2t-54" value="B" style="text;html=1;strokeColor=none;fillColor=none;align=center;verticalAlign=middle;whiteSpace=wrap;rounded=0;" vertex="1" parent="1">
          <mxGeometry x="960" y="1690" width="40" height="30" as="geometry" />
        </mxCell>
        <mxCell id="WqB-buCOvOlZIuGjWH2t-55" value="C" style="text;html=1;strokeColor=none;fillColor=none;align=center;verticalAlign=middle;whiteSpace=wrap;rounded=0;" vertex="1" parent="1">
          <mxGeometry x="1040" y="1690" width="40" height="30" as="geometry" />
        </mxCell>
        <mxCell id="WqB-buCOvOlZIuGjWH2t-56" value="B" style="text;html=1;strokeColor=none;fillColor=none;align=center;verticalAlign=middle;whiteSpace=wrap;rounded=0;" vertex="1" parent="1">
          <mxGeometry x="1000" y="1690" width="40" height="30" as="geometry" />
        </mxCell>
        <mxCell id="WqB-buCOvOlZIuGjWH2t-57" value="D" style="text;html=1;strokeColor=none;fillColor=none;align=center;verticalAlign=middle;whiteSpace=wrap;rounded=0;" vertex="1" parent="1">
          <mxGeometry x="1080" y="1690" width="40" height="30" as="geometry" />
        </mxCell>
        <mxCell id="WqB-buCOvOlZIuGjWH2t-59" value="Because BFS does not consider edge weights, the &#39;shortest path&#39; is defined as the one with least number of edges&lt;br&gt;&lt;br&gt;Once a node is visited, its parent node property is set and never updated again.&amp;nbsp; The queue object ensure FIFO behavior and as a consequence of this, if multiple paths from the source to the target exist and have the same length, the first path is the one returned." style="text;html=1;strokeColor=none;fillColor=none;align=center;verticalAlign=middle;whiteSpace=wrap;rounded=0;" vertex="1" parent="1">
          <mxGeometry x="170" y="280" width="230" height="200" as="geometry" />
        </mxCell>
        <mxCell id="WqB-buCOvOlZIuGjWH2t-61" value="C" style="text;html=1;strokeColor=none;fillColor=none;align=center;verticalAlign=middle;whiteSpace=wrap;rounded=0;" vertex="1" parent="1">
          <mxGeometry x="1040" y="1330" width="40" height="30" as="geometry" />
        </mxCell>
        <mxCell id="WqB-buCOvOlZIuGjWH2t-62" value="D" style="text;html=1;strokeColor=none;fillColor=none;align=center;verticalAlign=middle;whiteSpace=wrap;rounded=0;" vertex="1" parent="1">
          <mxGeometry x="1080" y="1450" width="40" height="30" as="geometry" />
        </mxCell>
      </root>
    </mxGraphModel>
  </diagram>
</mxfile>
